# xmcd
#
# Track frame offsets: 
#        150
#        26901
#        53656
#        82210
#        131190
#        153412
#        205430
#        241788
#        273660
#        322775
#
# Disc length: 4619 seconds
#
# Revision: 0
# Processed by: cddbd v1.5.2PL0 Copyright (c) Steve Scherf et al.
# Submitted via: ExactAudioCopy v0.99pb5
#
DISCID=8d12090a
DTITLE=mad dog rico - visions of blue
DYEAR=1900
DGENRE=Alternative
TTITLE0=one good reason
TTITLE1=stand by me
TTITLE2=guajira
TTITLE3=love the one your with
TTITLE4=when the leaves come falling
TTITLE5=summertime
TTITLE6=superstitious
TTITLE7=feeling allright
TTITLE8=ain't no sunshine
TTITLE9=little wing
EXTD=
EXTT0=
EXTT1=
EXTT2=
EXTT3=
EXTT4=
EXTT5=
EXTT6=
EXTT7=
EXTT8=
EXTT9=
PLAYORDER=
